<?xml version="1.0" encoding="UTF-8"?>
<svg id="_241001_50-M3280_Holiday_Reskin_Email_ONLogo.svg" data-name="241001_50-M3280_Holiday_Reskin_Email_ONLogo.svg" xmlns="http://www.w3.org/2000/svg" width="216" height="71" viewBox="0 0 216 71">
  <defs>
    <style>
      .cls-1 {
        fill: #fff;
      }

      .cls-2 {
        fill: #c0132d;
        fill-rule: evenodd;
      }
    </style>
  </defs>
  <rect class="cls-1" width="216" height="71"/>
  <path class="cls-2" d="M20.328,35.393c0,6.1-1.938,9.593-5.341,9.593-3.446,0-5.384-3.488-5.384-9.593S11.542,25.8,14.945,25.8c3.446,0,5.384,3.488,5.384,9.593m9.6,0c0-10.552-5.9-17.4-14.9-17.4C5.986,18,0,24.928,0,35.393c0,10.552,5.9,17.4,14.9,17.4,9.045,0,15.032-6.933,15.032-17.4M34.155,52.4h19.64V44.55H43.2V18.388H34.155V52.4ZM75.89,35.437c0,6.192-2.627,9.288-7.925,9.288h-1.12V26.062h0.947c5.427,0,8.1,3.139,8.1,9.375m9.6-.087c0-10.683-6.332-16.962-17.185-16.962H57.8V52.4h9.82c11.026,0,17.874-6.541,17.874-17.049M116.2,52.4h10.079V18.388h-8.054v19.97l-8.055-19.97H99.321V52.4h8.054V30.466Zm31.012-12.515h-6.073l3.058-16ZM158.974,52.4L151.7,18.388H137.18L129.9,52.4h8.83l0.948-5.058h9l0.948,5.058h9.346Zm20.2,0L186.5,18.388h-8.743L172.844,44.2l-4.91-25.813H158.76L166.125,52.4h13.05Zm27.393-9.724L216,18.388h-8.787l-4.823,14.52-5.04-14.52h-9.432l9.6,24.375V52.4h9.044V42.675Z"/>
</svg>
