<?xml version="1.0" encoding="UTF-8"?>
<svg width="116" height="24" viewBox="0 0 116 24" fill="none" xmlns="http://www.w3.org/2000/svg">
<path d="M44.1254 11.998C44.1254 8.09599 43.2162 5.56093 40.0317 5.56093C36.8473 5.56093 35.9337 8.09599 35.9337 11.998C35.9337 15.8999 36.8473 18.435 40.0317 18.435C43.2162 18.435 44.1254 15.8999 44.1254 11.998ZM25.8418 11.998C25.8418 9.37773 26.2598 6.61957 28.0782 4.30759C29.9484 1.91448 33.3526 0 40.0317 0C46.7109 0 50.1108 1.91448 51.9809 4.30759C53.8037 6.61957 54.2173 9.37773 54.2173 11.998C54.2173 14.6182 53.8037 17.3804 51.9809 19.6965C50.1108 22.0855 46.7065 24 40.0317 24C33.3569 24 29.9484 22.0855 28.0782 19.6965C26.2555 17.3804 25.8418 14.6182 25.8418 11.998ZM18.8093 13.7786L26.7812 23.2253H15.6464L9.50161 14.8007V23.2253H0V0.782829L9.88943 0.774717L14.6769 0.799054C21.5327 0.815278 24.2991 4.44955 24.2991 7.60926C24.2991 10.4972 21.1492 12.4482 18.805 13.7786H18.8093ZM9.4973 5.71911V11.7303C9.4973 11.7303 11.4924 10.8055 12.4361 10.3147C13.4143 9.81578 14.595 9.15464 14.595 8.06355C14.595 6.97245 13.6427 5.72317 11.2813 5.71506H9.4973V5.71911ZM75.1597 23.2253H74.7115L66.1493 11.9047V23.2253H56.6908V0.774717H66.089L74.677 12.1967V0.774717H84.1356V23.2253H75.1597ZM105.259 0.774717L115.2 23.2253H112.408L103.893 4.00744L103.337 5.26483L111.292 23.2253H108.504L101.945 8.42048L101.381 9.68599L107.379 23.2293H104.591L99.9845 12.8335L95.3824 23.2293H84.7776L94.7317 0.778773H105.259V0.774717Z" fill="blue"></path>
</svg>